<?xml version="1.0" standalone="no"?>
<!DOCTYPE svg PUBLIC "-//W3C//DTD SVG 20010904//EN"
 "http://www.w3.org/TR/2001/REC-SVG-20010904/DTD/svg10.dtd">
<svg version="1.0" xmlns="http://www.w3.org/2000/svg"
 width="660.000000pt" height="400.000000pt" viewBox="0 0 660.000000 400.000000"
 preserveAspectRatio="xMidYMid meet">
<metadata>
Created by potrace 1.16, written by Peter Selinger 2001-2019
</metadata>
<g transform="translate(0.000000,400.000000) scale(0.100000,-0.100000)"
fill="#000000" stroke="none">
<path d="M0 2000 l0 -2000 3300 0 3300 0 -1 983 -1 982 -28 -130 c-16 -71 -40
-182 -55 -245 -49 -223 -115 -522 -116 -528 0 -4 -5 4 -10 18 -15 37 -199 702
-199 719 0 48 -23 -30 -65 -219 -52 -233 -66 -298 -91 -405 -9 -38 -18 -82
-21 -98 -3 -15 -10 -27 -17 -28 -6 0 -27 -1 -46 -2 -30 -2 -36 -6 -41 -32 l-7
-30 -1 29 c-1 28 -2 29 -16 10 -13 -17 -14 -17 -15 -2 0 11 -5 15 -14 12 -11
-4 -34 77 -104 363 -49 202 -98 406 -107 453 -21 99 -30 115 -40 68 -36 -176
-141 -631 -161 -698 -14 -47 -26 -94 -28 -105 -5 -32 -6 -32 -21 0 -13 28 -14
28 -11 5 2 -14 1 -20 -1 -14 -2 6 -14 10 -26 9 -12 -1 -14 0 -4 2 11 3 17 14
17 31 0 18 -3 23 -8 14 -11 -16 -42 -6 -64 22 -14 18 -26 20 -77 18 -45 -2
-61 1 -61 10 0 9 -3 9 -10 -2 -5 -8 -10 -11 -10 -6 0 5 -7 3 -15 -4 -13 -11
-18 -11 -28 0 -9 10 -9 11 1 6 8 -5 12 0 12 16 0 17 -3 19 -9 9 -7 -11 -9 -11
-14 0 -3 8 -6 4 -6 -8 -1 -25 -16 -31 -24 -10 -4 11 -20 -19 -41 -78 -7 -20
-8 -20 -22 -1 -14 20 -14 20 -14 0 0 -16 -2 -16 -10 -4 -7 12 -12 7 -25 -23
-17 -41 -35 -41 -35 -1 0 14 -4 23 -9 19 -6 -3 -14 2 -19 11 -9 15 -10 15 -16
-4 -9 -26 -26 -29 -26 -4 0 9 -5 24 -10 32 -9 14 -17 1 -44 -75 -7 -19 -8 -19
-21 5 -8 14 -14 33 -15 42 0 9 -4 19 -8 22 -10 6 -22 -17 -48 -87 -13 -37 -20
-45 -30 -36 -11 9 -16 6 -23 -12 -5 -13 -17 -44 -27 -68 l-17 -44 -19 37 c-10
20 -22 36 -26 36 -5 0 -19 -18 -31 -41 -16 -28 -26 -37 -31 -29 -6 9 -9 8 -13
-6 -2 -10 -5 -1 -6 21 -2 32 -4 36 -11 20 -4 -12 -14 -26 -22 -33 -12 -10 -17
-7 -26 13 -6 13 -7 27 -3 30 5 2 12 -5 16 -18 6 -20 8 -20 12 -3 8 30 -13 42
-37 21 -11 -10 -23 -15 -26 -12 -4 4 -18 -3 -32 -13 -26 -21 -72 -27 -72 -10
0 11 -49 3 -64 -11 -5 -4 -15 -5 -22 -2 -8 3 -21 0 -29 -7 -8 -6 -18 -9 -23
-6 -6 3 -15 -1 -22 -9 -7 -8 -17 -12 -22 -9 -5 3 -18 -2 -28 -11 -10 -9 -30
-18 -44 -19 -14 0 -26 -4 -26 -7 0 -3 -13 -6 -30 -6 -20 0 -30 5 -31 16 0 10
-2 12 -6 4 -7 -18 -23 -16 -23 2 0 8 -4 15 -10 15 -5 0 -10 -5 -10 -11 0 -8
-5 -8 -15 1 -12 10 -18 9 -32 -7 -10 -10 -14 -13 -9 -6 5 8 3 15 -5 18 -24 8
-54 1 -61 -15 -5 -12 -7 -12 -7 3 -1 10 -10 18 -21 19 -11 0 -26 1 -32 2 -7 1
-18 7 -24 15 -9 12 -13 10 -26 -8 -14 -20 -16 -20 -22 -5 -6 16 -8 16 -22 -2
-14 -17 -15 -17 -10 -1 3 11 0 17 -10 17 -8 0 -13 -4 -9 -9 3 -5 1 -12 -5 -16
-5 -3 -10 -1 -10 5 0 7 -7 10 -15 6 -9 -3 -24 3 -35 14 -25 25 -30 25 -31 3 0
-12 -5 -8 -14 12 -12 26 -14 27 -15 8 0 -27 -16 -38 -24 -18 -4 11 -13 14 -31
9 -17 -4 -27 -2 -30 8 -7 16 -51 22 -60 7 -4 -6 -12 -3 -21 8 -13 17 -13 17
-14 -1 0 -20 0 -20 -15 0 -8 11 -15 14 -15 7 0 -23 -20 -14 -21 10 0 17 -2 18
-7 6 -8 -18 -54 -19 -60 -1 -5 15 -32 16 -32 2 0 -15 -37 -12 -43 4 -3 8 -20
17 -37 21 -17 4 -43 13 -58 21 -16 8 -58 14 -104 14 -45 0 -78 4 -78 10 0 6 8
11 18 11 9 1 -8 5 -38 9 -36 6 -57 5 -61 -2 -5 -8 -19 -6 -46 5 -28 11 -44 12
-57 5 -13 -8 -22 -6 -34 6 -15 15 -14 16 6 16 12 0 22 5 22 10 0 14 -13 12
-36 -5 -21 -16 -69 -21 -59 -6 8 14 -30 23 -83 20 -68 -4 -187 12 -171 22 11
7 10 9 -3 9 -10 0 -18 -6 -18 -12 0 -9 -4 -8 -10 2 -8 12 -10 12 -10 -5 -1
-19 -1 -19 -14 -2 -14 17 -27 23 -25 10 3 -20 -2 -26 -11 -13 -7 11 -10 11
-10 2 0 -7 -5 -10 -10 -7 -6 4 -8 11 -5 16 4 5 2 9 -4 9 -5 0 -12 -6 -14 -12
-3 -8 -6 -5 -6 6 -1 14 -7 17 -26 14 -14 -3 -28 -1 -31 4 -3 4 -10 5 -16 2 -6
-4 -5 -10 3 -15 10 -6 10 -9 2 -9 -7 0 -17 9 -23 20 -8 15 -17 19 -31 15 -13
-4 -19 -2 -19 9 0 8 -4 18 -10 21 -6 4 -7 -1 -3 -11 4 -12 3 -15 -6 -10 -7 5
-11 17 -8 27 3 11 2 17 -3 14 -4 -2 -10 -18 -13 -35 -7 -34 -26 -40 -34 -10
-3 11 -9 17 -14 15 -4 -3 -13 3 -18 12 -10 17 -12 17 -26 -1 -11 -14 -15 -16
-15 -5 -1 10 -5 9 -15 -5 -13 -17 -15 -17 -15 -3 0 11 -5 14 -16 10 -10 -4
-17 1 -21 15 -3 12 -11 18 -19 15 -8 -3 -16 5 -20 21 -7 28 -34 36 -34 11 0
-8 -6 -15 -13 -15 -8 0 -18 -10 -24 -22 -10 -22 -11 -21 -23 14 -13 35 -14 36
-25 15 -6 -13 -22 -23 -38 -25 -15 -2 -27 -9 -27 -15 0 -8 -3 -7 -9 2 -6 10
-13 10 -29 2 -15 -8 -22 -8 -25 2 -4 9 -8 9 -15 -1 -7 -11 -10 -11 -15 2 -5
12 0 16 16 16 18 0 19 2 7 10 -8 5 -32 10 -52 10 -37 0 -55 19 -20 21 14 0 14
2 -3 9 -38 16 -48 12 -41 -17 5 -28 5 -28 -8 2 -8 17 -12 33 -9 37 10 17 -57
7 -67 -9 -11 -17 -11 -17 -6 -1 3 10 -2 32 -10 50 l-15 33 6 -35 c4 -26 3 -30
-4 -15 -6 12 -10 14 -10 6 -1 -8 -3 -12 -6 -9 -3 3 -1 17 4 32 7 17 7 26 1 26
-6 0 -10 -5 -10 -12 0 -6 -2 -9 -5 -6 -7 7 5 38 14 38 4 0 13 -11 21 -24 9
-18 15 -22 25 -13 9 8 6 16 -13 34 -20 18 -23 26 -14 35 15 15 16 78 1 78 -6
0 -9 8 -7 18 4 13 -1 18 -18 20 -17 1 -24 -4 -25 -16 0 -9 -7 -1 -14 18 -7 19
-14 29 -14 21 -1 -8 -4 -12 -7 -9 -3 4 1 19 10 35 15 28 16 28 13 3 -2 -22 2
-25 31 -26 19 -1 36 5 38 11 5 11 95 31 117 26 5 -1 6 3 3 8 -8 12 34 22 53
12 9 -5 33 -11 54 -15 28 -5 37 -4 37 7 0 8 20 21 45 29 54 18 58 8 10 -22
-43 -27 -48 -56 -7 -45 15 3 43 9 62 12 19 3 40 11 45 18 6 7 19 12 30 12 31
-2 129 23 135 34 6 8 118 20 218 23 23 1 31 5 27 15 -4 11 -2 11 8 3 8 -7 17
-9 21 -5 4 4 12 1 17 -7 8 -12 9 -9 5 10 -3 14 -6 30 -6 36 0 7 -21 35 -46 63
-26 29 -44 54 -42 57 3 2 58 -23 123 -57 69 -35 125 -59 136 -56 11 3 19 1 19
-5 0 -5 5 -6 11 -2 13 7 49 10 294 19 88 3 180 11 205 16 25 6 81 15 125 20
44 6 82 14 85 18 9 14 170 23 170 10 0 -7 3 -9 7 -6 3 4 -6 21 -22 37 -26 27
-27 30 -9 30 11 0 24 -4 30 -9 5 -5 20 -12 33 -16 18 -5 22 -4 16 6 -6 9 -3
10 10 5 21 -8 20 -7 -42 64 -27 30 -29 42 -5 33 16 -6 16 -5 0 14 -34 38 -17
37 25 -3 23 -22 50 -46 60 -53 15 -12 17 -12 11 3 -10 25 3 20 64 -28 35 -27
72 -46 95 -49 20 -3 36 -3 33 1 -2 4 9 8 25 9 19 1 27 -2 23 -8 -4 -8 -1 -8
12 -1 21 11 89 10 100 -1 4 -4 13 1 21 11 8 9 12 12 9 6 -3 -7 1 -14 9 -18 22
-8 9 46 -29 119 -41 81 -41 79 -22 72 15 -6 15 -4 1 23 -19 38 -11 38 48 0 55
-34 62 -36 53 -14 -5 12 -2 15 11 9 11 -4 7 5 -12 25 -23 24 -27 33 -16 39 11
7 9 11 -8 20 -30 17 -26 26 14 28 70 5 82 8 78 20 -9 23 13 14 43 -18 27 -29
103 -71 131 -72 7 0 10 -4 7 -9 -3 -4 -1 -8 5 -8 5 0 13 5 16 10 3 6 12 10 18
10 7 0 4 -5 -6 -11 -21 -12 -22 -25 -3 -32 11 -4 13 -1 9 11 -5 13 -4 15 8 7
8 -6 46 -9 89 -6 58 3 68 6 45 11 -27 7 -25 8 16 9 25 0 49 4 53 8 4 4 19 9
34 11 15 2 30 8 33 14 4 6 15 8 24 4 9 -3 22 -3 28 1 7 4 17 8 22 8 6 0 38 4
73 9 61 8 79 20 45 29 -12 3 -8 5 9 6 14 0 28 -4 30 -10 2 -5 11 -7 21 -4 9 4
15 11 12 16 -9 14 62 22 95 11 24 -9 30 -8 30 4 0 12 19 19 43 15 4 -1 7 7 5
16 -3 15 3 18 39 15 25 -2 51 3 65 11 14 9 66 18 133 23 74 5 102 10 85 15
-33 9 -27 11 53 14 38 2 77 10 90 18 12 8 54 17 92 21 63 7 94 13 228 47 21 5
42 7 48 4 5 -4 36 1 70 9 33 9 81 16 106 16 25 0 71 6 102 14 31 8 114 16 184
19 70 2 130 7 134 11 3 3 2 6 -3 7 -5 0 -31 2 -59 4 -27 2 -70 8 -95 12 -38 7
-25 9 85 15 72 4 148 10 170 12 22 2 53 4 68 5 16 1 26 5 22 11 -3 6 1 10 10
10 11 0 15 -5 11 -15 -3 -8 -9 -22 -12 -30 -4 -10 0 -15 10 -15 9 0 16 4 16
10 0 6 29 8 70 6 122 -5 110 -92 110 775 l0 749 -3300 0 -3300 0 0 -2000z
m3386 395 c10 -8 29 -15 41 -15 12 0 42 -16 67 -35 26 -19 53 -35 62 -35 43 0
98 -26 113 -52 10 -18 24 -28 39 -28 20 0 76 -23 92 -37 3 -2 -6 -12 -19 -22
-22 -17 -26 -17 -68 -1 -25 9 -48 21 -51 26 -11 16 -64 54 -75 54 -8 0 2 -9
52 -47 2 -2 2 -5 -1 -8 -3 -3 -36 15 -74 41 -63 43 -66 44 -41 15 25 -30 62
-65 127 -121 l25 -21 -30 15 c-16 8 -57 42 -90 75 -33 34 -63 61 -67 61 -5 0
8 -22 27 -50 19 -27 35 -52 35 -56 0 -12 -61 39 -150 126 -88 85 -104 119 -30
65 19 -14 41 -25 49 -25 8 0 -4 14 -27 31 -23 17 -42 37 -42 45 0 18 11 18 36
-1z"/>
</g>
</svg>
